<?xml version="1.0" encoding="utf-8"?>
<!-- Generator: Adobe Illustrator 27.9.0, SVG Export Plug-In . SVG Version: 6.00 Build 0)  -->
<svg version="1.1" id="Layer_1" xmlns="http://www.w3.org/2000/svg" xmlns:xlink="http://www.w3.org/1999/xlink" x="0px" y="0px"
	 viewBox="0 0 165 45" style="enable-background:new 0 0 165 45;" xml:space="preserve">
<style type="text/css">
	.st0{fill:#4EB7F9;}
	.st1{clip-path:url(#SVGID_00000146477492212942505700000015047725570019831949_);}
	.st2{fill:#4AB6F9;}
</style>
<g>
	<g transform="translate(58.02522, 25.325196)">
		<g>
			<path class="st0" d="M31.6,8.4c-2.2,0-4-0.5-5.4-1.6c-1.3-1.1-2-3-2-5.8v-9.2h-3.6v-4.6h3.6l0.6-5.7h4.8v5.7h5.7v4.6h-5.7v9.3
				c0,1,0.2,1.7,0.6,2.1c0.4,0.4,1.2,0.6,2.3,0.6h2.7v4.7H31.6z"/>
		</g>
	</g>
</g>
<g>
	<g transform="translate(69.896848, 25.325196)">
		<g>
			<path class="st0" d="M26.1,8.4v-21.2h4.9l0.5,4c0.8-1.4,1.8-2.5,3.1-3.3c1.3-0.8,2.9-1.2,4.7-1.2v5.8h-1.5
				c-1.2,0-2.3,0.2-3.2,0.6c-0.9,0.4-1.7,1-2.2,1.9c-0.5,0.9-0.8,2.2-0.8,3.8v9.7H26.1z"/>
		</g>
	</g>
</g>
<g>
	<g transform="translate(80.966353, 25.325196)">
		<g>
			<path class="st0" d="M32.7-16.1c-1,0-1.8-0.3-2.5-0.9c-0.6-0.6-1-1.4-1-2.3c0-0.9,0.3-1.7,1-2.2c0.6-0.6,1.5-0.9,2.5-0.9
				c1,0,1.8,0.3,2.5,0.9c0.6,0.6,1,1.3,1,2.2c0,0.9-0.3,1.7-1,2.3C34.5-16.4,33.7-16.1,32.7-16.1z M30,8.4v-21.2h5.5V8.4H30z"/>
		</g>
	</g>
</g>
<g>
	<g transform="translate(87.896814, 25.325196)">
		<g>
			<path class="st0" d="M41.1,2.1c-1,0-2-0.1-2.9-0.3l-1.6,1.6c0.5,0.2,1.1,0.5,2,0.6c0.8,0.2,2.2,0.3,4,0.5c2.8,0.3,4.9,0.9,6.2,2
				c1.3,1.1,1.9,2.6,1.9,4.5c0,1.3-0.3,2.5-1,3.6c-0.7,1.1-1.7,2-3.2,2.7c-1.4,0.7-3.2,1-5.5,1c-3,0-5.5-0.6-7.3-1.7
				c-1.8-1.1-2.8-2.8-2.8-5.1c0-1.9,0.9-3.6,2.8-5c-0.6-0.3-1.1-0.5-1.5-0.8c-0.4-0.3-0.8-0.6-1.1-0.9v-1L34.9,0
				c-1.7-1.5-2.5-3.3-2.5-5.6c0-1.4,0.3-2.7,1-3.9c0.7-1.2,1.7-2.1,3-2.8c1.3-0.7,2.9-1,4.7-1c1.2,0,2.3,0.2,3.3,0.5h8v3.3l-3.6,0.2
				c0.6,1.1,0.9,2.3,0.9,3.6c0,1.4-0.3,2.7-1,3.9c-0.7,1.2-1.7,2.1-3,2.8C44.4,1.8,42.8,2.1,41.1,2.1z M41.1-2.1
				c1.1,0,2-0.3,2.8-0.9c0.7-0.6,1.1-1.4,1.1-2.6c0-1.1-0.4-2-1.1-2.6C43.1-8.7,42.2-9,41.1-9c-1.2,0-2.1,0.3-2.8,0.9
				c-0.7,0.6-1.1,1.5-1.1,2.6c0,1.1,0.4,2,1.1,2.6C38.9-2.4,39.9-2.1,41.1-2.1z M35.9,11c0,1.1,0.5,1.8,1.5,2.4
				c1,0.5,2.2,0.8,3.6,0.8c1.4,0,2.5-0.3,3.3-0.8c0.9-0.6,1.3-1.3,1.3-2.2c0-0.8-0.3-1.4-0.8-1.9c-0.6-0.5-1.7-0.8-3.3-0.9
				c-1.2-0.1-2.2-0.2-3.2-0.4c-0.8,0.5-1.4,1-1.8,1.5C36.1,9.9,35.9,10.5,35.9,11z"/>
		</g>
	</g>
</g>
<g>
	<g transform="translate(104.517111, 25.325196)">
		<g>
			<path class="st0" d="M47.8,9c-2.1,0-3.9-0.5-5.5-1.4c-1.6-0.9-2.9-2.2-3.9-3.9C37.4,2,36.9,0,36.9-2.2c0-2.2,0.5-4.1,1.4-5.8
				c1-1.7,2.3-3,3.9-3.9c1.6-0.9,3.5-1.4,5.5-1.4c2,0,3.9,0.5,5.5,1.4c1.6,0.9,2.9,2.2,3.9,3.9c1,1.7,1.4,3.6,1.4,5.8
				c0,2.2-0.5,4.1-1.4,5.8c-1,1.7-2.3,3-3.9,3.9C51.7,8.5,49.8,9,47.8,9z M47.8,4.2c1.4,0,2.7-0.5,3.7-1.6c1.1-1.1,1.6-2.7,1.6-4.8
				c0-2.1-0.5-3.7-1.6-4.8c-1.1-1.1-2.3-1.6-3.7-1.6c-1.5,0-2.7,0.5-3.8,1.6c-1,1.1-1.5,2.7-1.5,4.8c0,2.1,0.5,3.7,1.5,4.8
				C45.1,3.7,46.4,4.2,47.8,4.2z"/>
		</g>
	</g>
</g>
<g>
	<g transform="translate(-0.585808, 25.7389)">
		<g>
			<path class="st0" d="M3.1,8.6V-25h12.3c2.7,0,4.9,0.5,6.6,1.4c1.7,0.9,3,2.1,3.9,3.7c0.9,1.5,1.3,3.3,1.3,5.1
				c0,2-0.5,3.9-1.6,5.6c-1.1,1.7-2.7,2.9-5,3.7l7,14h-7L14.3-4.6H9.2V8.6H3.1z M9.2-9.1H15c2,0,3.5-0.5,4.5-1.5
				c1-1,1.4-2.3,1.4-3.9c0-1.6-0.5-2.9-1.4-3.8c-0.9-1-2.5-1.4-4.6-1.4H9.2V-9.1z"/>
		</g>
	</g>
</g>
<g>
	<g transform="translate(19.970337, 25.7389)">
		<g>
			<path class="st0" d="M21.3,9.2c-2.4,0-4.5-0.5-6.4-1.5c-1.8-1-3.3-2.5-4.4-4.3C9.5,1.5,9-0.7,9-3.1c0-2.5,0.5-4.6,1.5-6.6
				c1-1.9,2.5-3.4,4.3-4.5c1.8-1.1,4-1.6,6.5-1.6c2.3,0,4.4,0.5,6.2,1.5c1.8,1,3.2,2.4,4.2,4.2c1,1.8,1.5,3.7,1.5,5.9
				c0,0.4,0,0.7,0,1.1c0,0.4,0,0.8-0.1,1.2H15.1C15.2,0,15.9,1.5,17,2.5c1.2,1.1,2.6,1.6,4.2,1.6c1.2,0,2.3-0.3,3.1-0.8
				c0.8-0.6,1.5-1.3,1.9-2.2h6.2c-0.4,1.5-1.2,2.9-2.2,4.1c-1,1.2-2.3,2.2-3.8,2.9C25,8.8,23.2,9.2,21.3,9.2z M21.4-10.8
				c-1.5,0-2.8,0.4-4,1.3c-1.2,0.8-1.9,2.1-2.2,3.9H27c-0.1-1.6-0.7-2.8-1.7-3.7C24.2-10.3,22.9-10.8,21.4-10.8z"/>
		</g>
	</g>
</g>
<g>
	<defs>
		<rect id="SVGID_1_" x="56.2" y="9.6" width="20.1" height="24.6"/>
	</defs>
	<clipPath id="SVGID_00000057124478110097127390000001861944946246910394_">
		<use xlink:href="#SVGID_1_"  style="overflow:visible;"/>
	</clipPath>
	<g style="clip-path:url(#SVGID_00000057124478110097127390000001861944946246910394_);">
		<path class="st2" d="M66.2,9.6l-4.6,2.7V9.6h-5.4v24.3h5.4V21.6c0-2.6,2.2-4.7,4.8-4.7c2.7,0,4.8,2.1,4.8,4.7v12.3h5V15.4
			L66.2,9.6z"/>
	</g>
</g>
</svg>
